<svg width="75" height="63" viewBox="0 0 75 63" fill="none" xmlns="http://www.w3.org/2000/svg">
  <path d="M41.2034 1L44.1664 6.18519L47.1294 1" stroke="white" stroke-width="2"/>
  <path d="M36.0184 21.7778L44.0491 5.44446L59.7221 36.5556H47.8055" stroke="white" stroke-width="2" stroke-linecap="round"/>
  <path d="M28.4967 37.5761H15.2778L25.9598 17.2963L38.1105 41L46.389 24.4074" stroke="white" stroke-width="2" stroke-linecap="round"/>
  <path
    d="M0.384 51.228H2.424L4.308 56.772L4.032 56.652L5.676 52.56L6.48 54.948L3.936 60.408L0.384 51.228ZM4.812 51.228H6.54L8.712 56.592L8.4 56.544L10.02 51.228H11.892L8.484 60.384L4.812 51.228ZM12.6699 60L16.6539 50.82H16.7499L20.7339 60H18.7179L16.1739 53.544L17.4339 52.68L14.3859 60H12.6699ZM15.3939 56.808H18.0459L18.6579 58.272H14.8539L15.3939 56.808ZM31.3694 60.36L24.6734 54.312L25.1894 54.6L25.2254 60H23.4614V50.82H23.5334L30.0854 56.844L29.7014 56.676L29.6654 51.168H31.4174V60.36H31.3694ZM35.1319 60V51.168H37.7719C38.6599 51.168 39.4159 51.3 40.0399 51.564C40.6639 51.828 41.1639 52.18 41.5399 52.62C41.9239 53.06 42.2039 53.552 42.3799 54.096C42.5559 54.64 42.6439 55.188 42.6439 55.74C42.6439 56.396 42.5239 56.988 42.2839 57.516C42.0519 58.036 41.7319 58.484 41.3239 58.86C40.9159 59.228 40.4439 59.512 39.9079 59.712C39.3719 59.904 38.8039 60 38.2039 60H35.1319ZM36.8719 58.32H37.9039C38.3439 58.32 38.7439 58.264 39.1039 58.152C39.4639 58.032 39.7719 57.86 40.0279 57.636C40.2919 57.412 40.4919 57.132 40.6279 56.796C40.7719 56.452 40.8439 56.06 40.8439 55.62C40.8439 55.044 40.7479 54.576 40.5559 54.216C40.3719 53.848 40.1399 53.564 39.8599 53.364C39.5879 53.164 39.3079 53.028 39.0199 52.956C38.7319 52.876 38.4879 52.836 38.2879 52.836H36.8719V58.32ZM45.8297 51.168H51.8537V52.848H47.5697V54.732H51.3617V56.412H47.5697V58.32H52.0217V60H45.8297V51.168ZM57.9379 51.168C58.4899 51.168 58.9819 51.24 59.4139 51.384C59.8459 51.52 60.2059 51.72 60.4939 51.984C60.7899 52.24 61.0139 52.552 61.1659 52.92C61.3179 53.28 61.3939 53.688 61.3939 54.144C61.3939 54.504 61.3379 54.864 61.2259 55.224C61.1219 55.584 60.9459 55.912 60.6979 56.208C60.4579 56.504 60.1379 56.744 59.7379 56.928C59.3379 57.104 58.8419 57.192 58.2499 57.192H57.0019V60H55.2619V51.168H57.9379ZM58.2379 55.512C58.5019 55.512 58.7219 55.468 58.8979 55.38C59.0739 55.292 59.2099 55.18 59.3059 55.044C59.4099 54.908 59.4819 54.768 59.5219 54.624C59.5699 54.472 59.5939 54.332 59.5939 54.204C59.5939 54.108 59.5779 53.988 59.5459 53.844C59.5219 53.692 59.4659 53.54 59.3779 53.388C59.2899 53.236 59.1539 53.108 58.9699 53.004C58.7939 52.9 58.5539 52.848 58.2499 52.848H57.0019V55.512H58.2379ZM59.8699 56.592L62.0539 60H60.0259L57.7939 56.64L59.8699 56.592ZM72.8364 60.36L66.1404 54.312L66.6564 54.6L66.6924 60H64.9284V50.82H65.0004L71.5524 56.844L71.1684 56.676L71.1324 51.168H72.8844V60.36H72.8364Z"
    fill="white"/>
</svg>
